<svg width="15" height="18" viewBox="0 0 15 18" fill="none" xmlns="http://www.w3.org/2000/svg">
<path d="M2.41151 0.0562449C1.81039 0.200373 1.30418 0.653847 1.06163 1.25497L0.966714 1.49401L0.945623 8.99919H0.780403C0.590576 8.99919 0.305836 9.12222 0.186316 9.24878C-0.00351083 9.45618 4.48384e-06 9.38939 4.48384e-06 12.1173C4.48384e-06 14.4971 0.0035198 14.6483 0.0667954 14.7854C0.186316 15.0525 0.471056 15.2213 0.794464 15.2213H0.942107L0.956169 15.8646C0.97023 16.4516 0.980776 16.5255 1.06514 16.7434C1.24091 17.1934 1.55377 17.5484 1.96506 17.7664C2.4326 18.0089 2.09864 17.9984 7.78993 17.9984C12.7992 17.9984 12.9328 17.9984 13.1965 17.9281C13.3476 17.8894 13.5586 17.8086 13.671 17.7453C13.9312 17.5976 14.2616 17.2566 14.4022 16.993C14.6378 16.5501 14.6237 16.9754 14.6237 10.4405V4.51717L10.1065 0L6.36271 0.00351531C3.2587 0.00703062 2.58376 0.0140612 2.41151 0.0562449ZM9.63898 2.53805C9.65304 3.8809 9.65304 3.9266 9.73389 4.12346C9.88505 4.50311 10.1592 4.78082 10.5284 4.91792C10.7147 4.98822 10.792 4.99174 12.0716 4.99174H13.4215L13.4461 8.76015C13.4566 10.8342 13.4636 13.3793 13.4566 14.4163L13.4461 16.3005L13.3406 16.4692C13.2668 16.5923 13.1824 16.6661 13.0594 16.7294L12.8871 16.8207L7.89187 16.8313C4.43984 16.8383 2.84389 16.8278 2.71734 16.8032C2.59079 16.7751 2.48884 16.7223 2.37635 16.6239C2.1584 16.4305 2.10919 16.2548 2.10919 15.6712V15.2213H6.78455C11.9802 15.2213 11.5935 15.2389 11.8571 14.9822C12.0962 14.7502 12.0927 14.7924 12.0927 12.1208C12.0927 10.4229 12.0821 9.68819 12.0505 9.57218C11.9978 9.36127 11.7447 9.09059 11.5478 9.03786C11.4494 9.00973 10.0151 8.99919 6.75994 8.99919H2.10919V5.43818C2.10919 1.39909 2.09513 1.62407 2.37635 1.37449C2.47478 1.2866 2.58727 1.22333 2.66812 1.20927C2.73843 1.19872 2.81225 1.18466 2.82983 1.17763C2.85092 1.1706 4.38711 1.16357 6.24671 1.16357L9.62492 1.16005L9.63898 2.53805ZM3.40634 10.5846C4.04261 10.6865 4.35196 11.0556 4.3168 11.6673C4.29571 11.9872 4.21486 12.1735 4.00394 12.3528C3.77545 12.5461 3.52234 12.627 3.10402 12.6481L2.74195 12.6621V13.8152H2.00373V10.6197L2.19004 10.6022C2.28847 10.5916 2.42205 10.574 2.4783 10.5705C2.71382 10.5424 3.19542 10.5494 3.40634 10.5846ZM6.25022 10.5811C7.1853 10.7006 7.66338 11.2209 7.66338 12.1243C7.66338 13.0172 7.24857 13.5656 6.42599 13.7624C6.13773 13.8327 5.51201 13.8679 5.12532 13.8327L4.81598 13.8081V10.6197L5.00229 10.6022C5.10072 10.5916 5.2343 10.574 5.29054 10.5705C5.52255 10.5424 5.97603 10.5494 6.25022 10.5811ZM10.1592 11.1787H8.89374V11.9169H10.0538V12.5145H8.89374V13.8152H8.15552V10.5811H10.1592V11.1787Z" fill="#A2ACB7"/>
<path d="M2.76739 11.1327C2.75333 11.1432 2.74278 11.3647 2.74278 11.6248V12.0924H2.98182C3.35445 12.0924 3.5724 11.9377 3.61106 11.6459C3.63919 11.4385 3.54076 11.2557 3.36148 11.1749C3.22086 11.1116 2.8166 11.0799 2.76739 11.1327Z" fill="#A2ACB7"/>
<path d="M5.61848 11.1318C5.55872 11.1458 5.55521 11.2267 5.55521 12.2004V13.2515L5.6466 13.2726C5.74855 13.2972 6.03329 13.2691 6.23015 13.2164C6.44809 13.1531 6.65198 12.9738 6.76799 12.7418C6.86642 12.5449 6.87345 12.5027 6.87345 12.1442C6.87345 11.7118 6.84181 11.6134 6.61683 11.3778C6.41997 11.174 5.9208 11.0509 5.61848 11.1318Z" fill="#A2ACB7"/>
</svg>
