<svg width="19" height="18" viewBox="0 0 19 18" fill="none" xmlns="http://www.w3.org/2000/svg">
<path d="M4.96997 0.859364C-0.0428445 1.80551 0.210652 1.74482 0.0714076 2.01974C0 2.15898 0 2.25538 0 8.55353C0 14.8517 0 14.9481 0.0714076 15.0873C0.210652 15.3622 -0.0535557 15.3015 5.04851 16.2584L9.73642 17.1367L9.90423 17.0725C10.0042 17.0332 10.1077 16.9582 10.1684 16.8797L10.2648 16.7547L10.2755 15.7943L10.2863 14.8374L14.103 14.8303C17.8947 14.8195 17.9197 14.8195 18.0161 14.7446C18.0697 14.7053 18.1482 14.6267 18.1875 14.5732C18.2625 14.4768 18.2625 14.4696 18.2732 8.60351C18.2803 2.11257 18.2982 2.58386 18.0447 2.39106L17.9126 2.28752L14.0959 2.2768L10.2827 2.26966V1.35565C10.2827 0.580875 10.272 0.423779 10.2256 0.316668C10.1363 0.134577 9.95422 0.0131836 9.75427 -0.00109673C9.64716 -0.00823784 7.95837 0.295244 4.96997 0.859364ZM17.1378 8.55353V13.6949H13.7103H10.2827V13.1236V12.5559L11.2431 12.5452C12.15 12.5345 12.2107 12.5309 12.3035 12.4595C12.4606 12.3453 12.5392 12.2167 12.557 12.0454C12.582 11.8383 12.5035 11.6598 12.3321 11.5312L12.2 11.4277L11.2396 11.417L10.2827 11.4063V10.8386V10.2709L11.2431 10.2602C12.15 10.2495 12.2107 10.2459 12.3035 10.1745C12.4606 10.0602 12.5392 9.9317 12.557 9.76032C12.582 9.55324 12.5035 9.37472 12.3321 9.24618L12.2 9.14264L11.2396 9.13193L10.2827 9.12122V8.55353V7.98584L11.2431 7.97513C12.15 7.96442 12.2107 7.96085 12.3035 7.88944C12.4606 7.77519 12.5392 7.64665 12.557 7.47528C12.582 7.26819 12.5035 7.08967 12.3321 6.96114L12.2 6.8576L11.2396 6.84689L10.2827 6.83618V6.26849V5.7008L11.2431 5.69009C12.15 5.67937 12.2107 5.6758 12.3035 5.6044C12.4606 5.49014 12.5392 5.36161 12.557 5.19023C12.582 4.98315 12.5035 4.80463 12.3321 4.6761L12.2 4.57256L11.2396 4.56185L10.2827 4.55114V3.98345V3.41218H13.7103H17.1378V8.55353ZM7.6656 5.18309C7.91553 5.30449 8.05477 5.62225 7.96908 5.87218C7.94766 5.93287 7.51208 6.52198 6.99794 7.17893C6.48381 7.83945 6.06964 8.39286 6.07678 8.41071C6.08392 8.425 6.49095 8.89986 6.98009 9.46041C7.4728 10.0245 7.90125 10.5351 7.93695 10.5994C8.12618 10.9385 7.82984 11.4098 7.42282 11.4098C7.19074 11.4098 7.08006 11.3099 6.20889 10.3137C5.7376 9.77817 5.33772 9.34615 5.31986 9.35686C5.30201 9.36758 4.95926 9.79959 4.55937 10.3137C4.15592 10.8314 3.7846 11.2813 3.73105 11.317C3.39543 11.5384 2.90986 11.3027 2.86701 10.8957C2.85273 10.7957 2.86701 10.6993 2.90629 10.6208C2.93842 10.5529 3.32759 10.0352 3.76675 9.46755L4.57008 8.43928L4.3273 8.16436C3.39186 7.10039 2.97413 6.61124 2.917 6.51127C2.67778 6.06498 3.19549 5.53299 3.65607 5.75078C3.74533 5.79363 4.02382 6.0864 4.53438 6.66837L5.28059 7.52169L5.51266 7.22535C7.21573 5.04742 7.14433 5.12597 7.41925 5.12597C7.48708 5.12597 7.59776 5.15096 7.6656 5.18309Z" fill="#A2ACB7"/>
</svg>
